<svg width="48" height="48" xmlns="http://www.w3.org/2000/svg">
    <!-- Define gradients -->
    <defs>
      <linearGradient id="bgGradient" x1="0%" y1="0%" x2="100%" y2="100%">
        <stop offset="0%" style="stop-color:#2C5364"/>
        <stop offset="50%" style="stop-color:#203A43"/>
        <stop offset="100%" style="stop-color:#0F2027"/>
      </linearGradient>
      <linearGradient id="chartGradient" x1="0%" y1="100%" x2="0%" y2="0%">
        <stop offset="0%" style="stop-color:#00F260"/>
        <stop offset="100%" style="stop-color:#0575E6"/>
      </linearGradient>
    </defs>

    <!-- Background circle with subtle shadow -->
    <circle cx="24" cy="24" r="24" fill="url(#bgGradient)"/>
    
    <!-- Stylized chart lines representing portfolio growth -->
    <path d="M9.600000000000001 33.599999999999994
             L16.799999999999997 24
             L24 28.799999999999997
             L31.200000000000003 21.6
             L38.400000000000006 14.399999999999999"
          stroke="url(#chartGradient)"
          stroke-width="3"
          fill="none"
          stroke-linecap="round"
          stroke-linejoin="round"/>

    <!-- Dots at data points -->
    <circle cx="9.600000000000001" cy="33.599999999999994" r="1.5" fill="#00F260"/>
    <circle cx="16.799999999999997" cy="24" r="1.5" fill="#00F260"/>
    <circle cx="24" cy="28.799999999999997" r="1.5" fill="#00F260"/>
    <circle cx="31.200000000000003" cy="21.6" r="1.5" fill="#00F260"/>
    <circle cx="38.400000000000006" cy="14.399999999999999" r="1.5" fill="#00F260"/>

    <!-- Subtle grid lines -->
    <path d="M9.600000000000001 9.600000000000001 V38.400000000000006 M19.200000000000003 9.600000000000001 V38.400000000000006 M28.799999999999997 9.600000000000001 V38.400000000000006 M38.400000000000006 9.600000000000001 V38.400000000000006"
          stroke="rgba(255,255,255,0.1)"
          stroke-width="0.375"
          stroke-dasharray="0.75"/>
    <path d="M9.600000000000001 9.600000000000001 H38.400000000000006 M9.600000000000001 19.200000000000003 H38.400000000000006 M9.600000000000001 28.799999999999997 H38.400000000000006 M9.600000000000001 38.400000000000006 H38.400000000000006"
          stroke="rgba(255,255,255,0.1)"
          stroke-width="0.375"
          stroke-dasharray="0.75"/>
  </svg>